# AST/ASF file generated using VICON BodyLanguage
# -----------------------------------------------
:version 1.10
:name VICON
:units
  mass 1.0
  length 0.45
  angle deg
:documentation
   .ast/.asf automatically generated from VICON data using
   VICON BodyBuilder and BodyLanguage model FoxedUp or BRILLIANT.MOD
:root
   order TX TY TZ RX RY RZ
   axis XYZ
   position 0 0 0  
   orientation 0 0 0 
:bonedata
  begin
     id 1 
     name lhipjoint
     direction 0.78388 -0.462562 0.414208 
     length 3.01181 
     axis 0 0 0  XYZ
  end
  begin
     id 2 
     name lfemur
     direction 0.34202 -0.939693 0  
     length 6.04673  
     axis 0 0 20  XYZ
    dof rx ry rz
    limits (-160.0 20.0)
           (-70.0 70.0)
           (-60.0 70.0)
  end
  begin
     id 3 
     name ltibia
     direction 0.34202 -0.939693 0   
     length 7.211   
     axis 0 0 20   XYZ
    dof rx
    limits (-10.0 170.0)
  end
  begin
     id 4 
     name lfoot
     direction 0.121887 -0.334882 0.934344   
     length 2.13567   
     axis -90 7.62852e-016 20   XYZ
    dof rx rz
    limits (-45.0 90.0)
           (-70.0 20.0)
  end
  begin
     id 5 
     name ltoes
     direction 1.53555e-011 -4.2179e-011 1   
     length 1.05957   
     axis -90 7.62852e-016 20   XYZ
    dof rx
    limits (-90.0 20.0)
  end
  begin
     id 6 
     name rhipjoint
     direction -0.769387 -0.475875 0.426129   
     length 2.92756  
     axis 0 0 0  XYZ 
  end
  begin
     id 7 
     name rfemur
     direction -0.34202 -0.939693 0   
     length 6.35468   
     axis 0 0 -20   XYZ
    dof rx ry rz
    limits (-160.0 20.0)
           (-70.0 70.0)
           (-70.0 60.0)
  end
  begin
     id 8 
     name rtibia
     direction -0.34202 -0.939693 0   
     length 7.37886   
     axis 0 0 -20   XYZ
    dof rx
    limits (-10.0 170.0)
 end
 begin
     id 9 
     name rfoot
     direction -0.101763 -0.279592 0.954711   
     length 2.21478  
     axis -90 -7.62852e-016 -20   XYZ
    dof rx rz
    limits (-45.0 90.0)
           (-20.0 70.0)
  end
  begin
     id 10 
     name rtoes
     direction -1.53494e-011 -4.21851e-011 1   
     length 1.10506   
     axis -90 -7.62852e-016 -20   XYZ
    dof rx
    limits (-90.0 20.0)
  end
  begin
     id 11 
     name lowerback
     direction 0.00747405 0.999267 0.0375481   
     length 2.13259   
     axis 0 0 0   XYZ
    dof rx ry rz
    limits (-20.0 45.0)
           (-30.0 30.0)
           (-30.0 30.0)
  end
  begin
     id 12 
     name upperback
     direction 0.00661626 0.996177 0.0871029   
     length 2.10528   
     axis 0 0 0   XYZ
    dof rx ry rz
    limits (-20.0 45.0)
           (-30.0 30.0)
           (-30.0 30.0)
  end
  begin
     id 13 
     name thorax
     direction 0.00320659 0.997679 0.0680167   
     length 2.11338   
     axis 0 0 0   XYZ
    dof rx ry rz
    limits (-20.0 45.0)
           (-30.0 30.0)
           (-30.0 30.0)
  end
  begin
     id 14 
     name lowerneck
     direction 0.0374841 0.973033 0.227602   
     length 1.42765   
     axis 0 0 0   XYZ
    dof rx ry rz
    limits (-20.0 45.0)
           (-30.0 30.0)
           (-30.0 30.0)
  end
  begin
     id 15 
     name upperneck
     direction 0.00481585 0.989155 -0.146795   
     length 1.47593   
     axis 0 0 0   XYZ
    dof rx ry rz
    limits (-20.0 45.0)
           (-30.0 30.0)
           (-30.0 30.0)
  end
  begin
     id 16
     name head
     direction -0.00292522 0.997206 -0.0746423  
     length 1.48116  
     axis 0 0 0   XYZ
    dof rx ry rz
    limits (-20.0 45.0)
           (-30.0 30.0)
           (-30.0 30.0)
  end
  begin
     id 17 
     name lclavicle
     direction 0.951444 0.305606 0.0368784  
     length 3.01855  
     axis 0 0 0   XYZ
    dof ry rz
    limits (-20.0 10.0)
           (0.0 20.0)
  end
  begin
     id 18 
     name lhumerus
     direction 1 -4.48977e-011 2.61664e-027   
     length 5.52731   
     axis 180 -30 -90   XYZ
    dof rx ry rz
    limits (-60.0 90.0)
           (-90.0 90.0)
           (-90.0 90.0)
  end
  begin
     id 19
     name lradius
     direction 1 -4.48944e-011 8.22157e-027   
     length 3.11059   
     axis 180 -30 -90   XYZ
    dof rx
    limits (-10.0 170.0)
  end
  begin
     id 20
     name lwrist
     direction 1 -4.48976e-011 1.5779e-026   
     length 1.5553   
     axis -1.15221e-014 90 90   XYZ
    dof ry
    limits (-180.0 0.0)
 end
  begin
     id 21 
     name lhand
     direction 1 -4.49025e-011 3.1558e-026   
     length 0.419626   
     axis -2.01367e-014 90 90   XYZ
    dof rx rz
    limits (-90.0 90.0)
           (-45.0 45.0)
  end
  begin
     id 22 
     name lfingers
     direction 1 -4.4904e-011 6.31161e-026   
     length 0.338313   
     axis -4.02734e-014 90 90   XYZ
    dof rx
    limits (0.0 90.0)
  end
  begin
     id 23
     name lthumb
     direction 0.707107 -6.35004e-011 0.707107   
     length 0.485752   
     axis -90 45 2.85299e-015   XYZ
    dof rx rz
    limits (-45.0 45.0)
           (-45.0 45.0)
  end
  begin
     id 24 
     name rclavicle
     direction -0.968876 0.223791 0.105816   
     length 3.04177  
     axis 0 0 0   XYZ 
    dof ry rz
    limits (-10.0 20.0)
           (-20.0 0.0)
  end
  begin
     id 25 
     name rhumerus
     direction -1 -4.48962e-011 -1.01384e-027  
     length 5.25396   
     axis 180 30 90   XYZ
    dof rx ry rz
    limits (-90.0 60.0)
           (-90.0 90.0)
           (-90.0 90.0)
  end
  begin
     id 26 
     name rradius
     direction -1 -4.48955e-011 8.88542e-027   
     length 3.10567   
     axis 180 30 90   XYZ
    dof rx
    limits (-10.0 170.0)
  end
  begin
     id 27 
     name rwrist
     direction -1 -4.48994e-011 1.5779e-026   
     length 1.55283   
     axis -1.15221e-014 -90 -90   XYZ
    dof ry
    limits (-180.0 0.0)
  end
  begin
     id 28
     name rhand
     direction -1 -4.48891e-011 3.1558e-026   
     length 0.498676   
     axis -2.01367e-014 -90 -90   XYZ
    dof rx rz
    limits (-90.0 90.0)
           (-45.0 45.0)
  end
  begin
     id 29
     name rfingers
     direction -1 -4.48972e-011 6.31161e-026   
     length 0.402045   
     axis -4.02734e-014 -90 -90   XYZ
    dof rx
    limits (0.0 90.0)
  end
  begin
     id 30
     name rthumb
     direction -0.707107 -6.34849e-011 0.707107   
     length 0.577259   
     axis -90 -45 -2.85299e-015   XYZ
    dof rx rz
    limits (-45.0 45.0)
           (-45.0 45.0)
  end
:hierarchy
  begin
    root lhipjoint rhipjoint lowerback
    lhipjoint lfemur
    lfemur ltibia
    ltibia lfoot
    lfoot ltoes
    rhipjoint rfemur
    rfemur rtibia
    rtibia rfoot
    rfoot rtoes
    lowerback upperback
    upperback thorax
    thorax lowerneck lclavicle rclavicle
    lowerneck upperneck
    upperneck head
    lclavicle lhumerus
    lhumerus lradius
    lradius lwrist
    lwrist lhand lthumb
    lhand lfingers
    rclavicle rhumerus
    rhumerus rradius
    rradius rwrist
    rwrist rhand rthumb
    rhand rfingers
  end

#!OML:ASF H:\Pregnant\Project 1\Capture day 1\Session 1\femalepreg.ASF
:FULLY-SPECIFIED
:DEGREES
81
root 2.48846 15.0245 39.8416 -156.327 2.05867 -180.755
lowerback -21.0942 0.0537734 0.678431
upperback -8.17465 1.58115 -0.759514
thorax 2.94395 1.45373 -0.795716
lowerneck -20.9859 5.5621 5.92893
upperneck 30.5022 5.13622 -1.39211
head 14.1688 2.23485 -0.752046
rclavicle -3.41661e-015 8.27441e-015
rhumerus -35.4144 18.46 -96.9454
rradius 61.5085
rwrist -21.55
rhand -24.2887 -23.5063
rfingers 7.12502
rthumb 2.19855 -53.4748
lclavicle -3.41661e-015 8.27441e-015
lhumerus -45.5741 -20.9686 95.7329
lradius 63.4067
lwrist 22.6577
lhand -25.0015 -11.4384
lfingers 7.12502
lthumb 1.51013 18.536
rfemur -42.3181 23.88 17.8409
rtibia 42.8623
rfoot -20.2453 -19.0711
rtoes -0.508897
lfemur -36.7731 -9.69006 -19.3803
ltibia 32.0821
lfoot -16.3437 8.10148
ltoes -13.7252
82
root 2.49643 15.0016 39.8316 -156.204 1.95626 -180.652
lowerback -20.9336 0.0999183 1.05101
upperback -8.20754 1.56936 -0.791254
thorax 2.83265 1.44046 -1.04872
lowerneck -21.3911 5.35404 5.66865
upperneck 30.5165 4.90651 -1.33519
head 14.2395 2.11922 -0.719015
rclavicle -9.88022e-015 -3.57812e-015
rhumerus -35.7405 18.5747 -97.1948
rradius 62.6262
rwrist -21.1968
rhand -24.5944 -23.3992
rfingers 7.12502
rthumb 1.90326 -53.3705
lclavicle -9.88022e-015 -3.57812e-015
lhumerus -45.7718 -20.7089 95.4809
lradius 64.8193
lwrist 21.8867
lhand -24.4634 -11.8951
lfingers 7.12502
lthumb 2.02977 18.075
rfemur -42.5488 23.8783 17.9799
rtibia 43.1593
rfoot -20.4737 -19.0706
rtoes -0.423051
lfemur -37.9791 -9.32585 -19.358
ltibia 33.9585
lfoot -16.2858 7.86653
ltoes -14.6523
83
root 2.50311 14.9771 39.8219 -156.133 1.84648 -180.48
lowerback -20.7151 0.162562 1.51204
upperback -8.23105 1.55722 -0.800312
thorax 2.70194 1.42261 -1.32904
lowerneck -21.7427 5.17479 5.44606
upperneck 30.4897 4.72479 -1.31347
head 14.286 2.02507 -0.698712
rclavicle 8.18278e-015 -2.38542e-015
rhumerus -36.1341 18.7027 -97.447
rradius 63.7956
rwrist -20.8629
rhand -24.9077 -23.3351
rfingers 7.12502
rthumb 1.60067 -53.3088
lclavicle 8.18278e-015 -2.38542e-015
lhumerus -45.995 -20.4206 95.2162
lradius 66.2754
lwrist 21.2376
lhand -23.9372 -12.3714
lfingers 7.12502
lthumb 2.53799 17.5933
rfemur -42.671 23.8292 18.2409
rtibia 43.3947
rfoot -20.6872 -19.026
rtoes -0.431266
lfemur -39.3114 -8.90197 -19.2977
ltibia 36.158
lfoot -16.1346 7.60682
ltoes -15.7815
84
root 2.50874 14.9524 39.8124 -156.13 1.74111 -180.222
lowerback -20.4135 0.252634 2.06775
upperback -8.23635 1.55651 -0.785997
thorax 2.54873 1.4042 -1.63722
lowerneck -22.0583 5.0136 5.25217
upperneck 30.4172 4.57649 -1.32111
head 14.3083 1.94638 -0.689387
rclavicle 7.237e-015 -9.44227e-016
rhumerus -36.5676 18.8155 -97.6912
rradius 65.0059
rwrist -20.5381
rhand -25.2108 -23.2779
rfingers 7.12502
rthumb 1.30799 -53.2537
lclavicle 7.237e-015 -9.44227e-016
lhumerus -46.2306 -20.109 94.9383
lradius 67.7904
lwrist 20.7076
lhand -23.4381 -12.826
lfingers 7.12502
lthumb 3.02002 17.1323
rfemur -42.6509 23.7469 18.6449
rtibia 43.5379
rfoot -20.8756 -18.9244
rtoes -0.507885
lfemur -40.7441 -8.4008 -19.1873
ltibia 38.6635
lfoot -15.8622 7.29317
ltoes -17.0173
85
root 2.51301 14.9285 39.8031 -156.206 1.62581 -179.877
lowerback -20.0189 0.360318 2.72062
upperback -8.2225 1.55652 -0.742579
thorax 2.36809 1.37961 -1.97114
lowerneck -22.3187 4.87465 5.0866
upperneck 30.2953 4.46751 -1.35878
head 14.3007 1.88515 -0.690392
rclavicle 2.01269e-015 3.3048e-015
rhumerus -37.052 18.9177 -97.9233
rradius 66.2685
rwrist -20.2145
rhand -25.4418 -23.1438
rfingers 7.12502
rthumb 1.08485 -53.1208
lclavicle 2.01269e-015 3.3048e-015
lhumerus -46.486 -19.7512 94.6535
lradius 69.3801
lwrist 20.279
lhand -22.9872 -13.1942
lfingers 7.12502
lthumb 3.45545 16.7575
rfemur -42.4609 23.6215 19.1993
rtibia 43.5684
rfoot -21.0289 -18.7718
rtoes -0.695161
lfemur -42.2557 -7.85155 -19.016
ltibia 41.434
lfoot -15.4282 6.91093
ltoes -18.2623
86
root 2.51591 14.9061 39.794 -156.361 1.49667 -179.446
lowerback -19.5355 0.479129 3.47302
upperback -8.1911 1.55318 -0.669476
thorax 2.15938 1.34709 -2.33222
lowerneck -22.5095 4.76021 4.97458
upperneck 30.1301 4.39635 -1.44761
head 14.2641 1.83983 -0.715074
rclavicle 7.1578e-015 -4.39811e-015
rhumerus -37.5877 19.007 -98.1479
rradius 67.5799
rwrist -19.8836
rhand -25.5911 -22.9443
rfingers 7.12502
rthumb 0.940627 -52.9219
lclavicle 7.1578e-015 -4.39811e-015
lhumerus -46.775 -19.3291 94.3635
lradius 71.0579
lwrist 19.931
lhand -22.5853 -13.4453
lfingers 7.12502
lthumb 3.84361 16.4998
rfemur -42.1016 23.4638 19.8974
rtibia 43.4765
rfoot -21.1416 -18.5704
rtoes -0.931664
lfemur -43.826 -7.2742 -18.7716
ltibia 44.4111
lfoot -14.8032 6.46775
ltoes -19.4795
